<?xml version="1.0" standalone="no"?>
<!DOCTYPE svg PUBLIC "-//W3C//DTD SVG 20010904//EN"
 "http://www.w3.org/TR/2001/REC-SVG-20010904/DTD/svg10.dtd">
<svg version="1.0" xmlns="http://www.w3.org/2000/svg"
 width="361.000000pt" height="140.000000pt" viewBox="0 0 361.000000 140.000000"
 preserveAspectRatio="xMidYMid meet">

<g transform="translate(0.000000,140.000000) scale(0.100000,-0.100000)"
fill="#000000" stroke="none">
<path d="M2441 1269 c-17 -24 -31 -54 -31 -68 0 -14 -11 -41 -25 -61 -14 -19
-29 -59 -35 -88 -5 -29 -21 -72 -35 -96 -14 -23 -27 -65 -30 -92 -13 -107 -16
-120 -27 -101 -5 10 -14 61 -19 113 -5 52 -12 101 -16 107 -15 24 -20 139 -9
191 7 29 6 38 -3 35 -13 -5 -28 -29 -57 -96 -13 -29 -24 -41 -34 -38 -8 2 -21
1 -27 -3 -23 -15 -55 -153 -58 -249 -3 -76 -7 -98 -25 -123 -19 -26 -21 -39
-15 -73 7 -40 9 -63 13 -179 1 -27 6 -48 11 -48 15 0 39 102 34 142 -4 27 0
45 14 65 15 21 23 58 31 148 5 66 10 134 10 150 0 17 6 44 13 60 l13 30 4 -40
c2 -22 14 -54 28 -72 13 -17 24 -39 24 -48 0 -8 7 -32 16 -53 8 -20 15 -54 16
-75 0 -21 8 -45 17 -54 9 -9 21 -30 26 -46 15 -44 35 -46 35 -4 0 19 7 51 15
70 8 20 15 49 15 64 0 15 9 42 20 58 13 19 20 48 21 80 0 54 17 112 18 66 1
-14 8 -33 17 -42 14 -16 15 -25 5 -64 -15 -59 -4 -184 20 -231 11 -23 16 -47
12 -68 -3 -20 -1 -36 6 -40 6 -4 11 -15 11 -25 0 -10 9 -26 20 -36 11 -10 20
-24 20 -32 0 -7 7 -13 16 -13 13 0 15 6 9 33 -3 17 -9 52 -12 77 -3 25 -9 49
-14 54 -5 6 -9 23 -9 39 0 15 -5 37 -10 47 -7 13 -6 33 2 64 12 45 9 83 -24
306 -17 113 -14 178 11 234 29 66 13 80 -28 25z m8 -44 c-24 -55 -23 -104 7
-285 16 -92 19 -157 15 -265 -2 -44 10 -118 21 -132 6 -7 7 -24 4 -38 -4 -15
0 -37 9 -55 8 -16 15 -35 14 -42 0 -7 -4 -3 -9 10 -5 12 -14 22 -20 22 -5 0
-10 11 -10 24 0 13 -7 29 -15 36 -11 9 -14 23 -9 45 4 23 0 41 -11 59 -25 37
-38 160 -24 222 10 44 9 55 -5 75 -9 13 -16 36 -16 51 0 16 -5 28 -10 28 -16
0 -30 -46 -30 -98 0 -29 -8 -59 -20 -80 -11 -18 -20 -44 -20 -58 0 -13 -7 -41
-15 -61 -8 -19 -15 -52 -16 -72 l-1 -36 -10 35 c-5 19 -15 40 -22 45 -6 6 -17
35 -23 65 -19 92 -37 144 -60 177 -14 18 -23 46 -23 67 0 26 -4 36 -15 36 -23
0 -38 -47 -40 -125 -3 -133 -16 -229 -36 -257 -13 -19 -19 -46 -20 -85 -1 -32
-5 -69 -9 -83 -7 -22 -8 -21 -11 15 -1 22 -2 51 0 65 1 14 -4 49 -10 78 -12
50 -11 54 12 85 21 28 24 43 25 117 0 82 26 211 47 238 5 7 18 10 27 7 18 -6
35 22 70 113 19 49 22 32 5 -26 -13 -41 -13 -56 -4 -74 7 -12 13 -36 14 -53 2
-16 8 -48 14 -70 6 -22 11 -59 11 -83 0 -52 19 -132 31 -132 16 0 29 39 29 88
0 55 15 106 41 140 10 13 23 49 29 80 7 31 22 73 34 92 13 19 26 50 29 68 6
29 38 84 45 78 1 -2 -7 -25 -19 -51z"/>
<path d="M230 1230 c-32 -21 -52 -29 -71 -25 -17 4 -34 -1 -51 -15 -14 -11
-31 -20 -37 -20 -16 0 -13 -36 4 -50 12 -10 14 -24 10 -54 -5 -32 -2 -47 13
-66 13 -17 21 -49 26 -99 3 -41 10 -79 14 -85 14 -19 33 -111 31 -147 -2 -19
3 -43 9 -55 6 -12 9 -37 6 -56 -4 -24 0 -47 15 -76 12 -23 21 -52 21 -66 0
-14 5 -28 10 -31 6 -3 10 -16 10 -28 0 -12 4 -29 10 -37 7 -12 10 -11 15 5 4
11 12 31 20 45 7 15 9 33 5 45 -5 11 -6 30 -3 42 2 11 -1 31 -8 44 -10 20 -21
209 -12 209 2 0 15 -7 28 -16 13 -9 28 -13 34 -10 5 4 19 -6 31 -21 12 -15 29
-28 38 -28 9 -1 25 -2 34 -3 10 -1 25 -16 34 -33 11 -23 21 -30 35 -26 10 3
19 1 19 -4 0 -5 31 -41 70 -80 38 -38 70 -78 70 -88 0 -17 39 -61 53 -61 14 0
6 46 -13 75 -11 17 -20 36 -20 44 0 8 -19 33 -42 56 -24 23 -50 53 -58 67 -48
80 -63 96 -105 114 -25 10 -45 22 -45 26 0 4 -9 17 -21 29 l-21 21 22 23 c12
13 32 26 45 29 16 4 26 16 30 36 4 16 11 32 16 35 5 4 9 16 9 29 0 12 4 26 9
32 5 5 11 35 14 66 4 42 2 60 -9 69 -8 7 -12 20 -8 35 8 32 -13 57 -42 50 -16
-4 -23 -1 -27 14 -3 11 -12 20 -21 20 -9 0 -39 11 -66 25 -63 32 -75 31 -130
-5z m130 -10 c22 -11 48 -20 58 -20 11 0 22 -9 25 -21 4 -13 12 -19 24 -18 30
5 43 -9 37 -40 -4 -16 -1 -32 5 -35 14 -9 15 -113 1 -121 -5 -3 -10 -15 -10
-26 0 -10 -4 -27 -9 -37 -5 -9 -14 -29 -20 -44 -6 -16 -18 -28 -27 -28 -8 0
-29 -14 -46 -31 l-31 -30 32 -31 c17 -17 31 -35 31 -40 0 -5 4 -7 9 -4 5 3 14
-1 21 -10 7 -8 19 -13 27 -10 8 4 22 -8 34 -28 11 -19 26 -37 34 -40 8 -3 15
-12 15 -21 0 -14 34 -57 78 -98 12 -11 22 -28 22 -37 0 -10 9 -29 21 -44 11
-14 19 -34 17 -44 -3 -11 -12 1 -28 35 -14 29 -34 57 -45 63 -11 6 -28 24 -37
40 -9 17 -23 30 -30 30 -7 0 -21 14 -30 31 -13 21 -23 29 -36 25 -12 -4 -21 2
-30 23 -12 27 -49 47 -78 42 -6 -1 -19 10 -28 24 -9 14 -26 25 -38 25 -12 0
-30 8 -40 17 -17 15 -20 15 -35 0 -13 -13 -14 -21 -6 -39 5 -13 9 -52 7 -88
-1 -35 3 -73 9 -85 14 -26 17 -116 4 -133 -7 -10 -12 -9 -22 5 -7 9 -11 23 -8
29 2 7 -6 34 -18 61 -12 26 -24 71 -25 98 -2 28 -8 82 -13 120 -6 39 -12 82
-14 97 -2 15 -9 33 -15 41 -7 8 -14 46 -15 84 -2 53 -8 76 -25 97 -17 23 -20
36 -15 72 4 35 2 45 -11 50 -18 7 -22 34 -4 34 6 0 20 8 30 17 11 10 32 16 51
15 22 -2 44 6 67 23 41 30 78 32 130 5z"/>
<path d="M246 1119 c-15 -12 -33 -19 -41 -16 -24 10 -35 -17 -29 -67 4 -26 11
-49 15 -52 5 -3 9 -16 9 -30 0 -13 4 -32 9 -42 15 -28 24 -55 25 -82 1 -22 6
-25 36 -25 51 -1 129 42 137 74 3 14 12 33 19 41 17 20 16 106 -2 121 -8 6
-14 19 -14 29 0 22 -25 44 -40 35 -6 -4 -17 0 -23 8 -21 26 -72 29 -101 6z
m94 -13 c6 -8 21 -16 33 -18 12 -2 23 -12 25 -23 2 -11 9 -26 14 -33 17 -20
19 -84 3 -102 -7 -8 -17 -28 -20 -43 -5 -18 -17 -32 -34 -38 -14 -6 -33 -16
-41 -24 -10 -9 -25 -11 -45 -7 -26 6 -30 12 -33 47 -2 22 -9 47 -16 55 -8 8
-11 21 -9 28 3 7 -2 23 -11 36 -8 13 -15 32 -15 42 1 11 -2 29 -6 42 -6 19 -4
22 17 22 13 0 33 7 44 15 25 19 78 19 94 1z"/>
<path d="M644 1079 c-12 -21 -15 -91 -3 -105 6 -8 19 -14 29 -14 22 0 36 70
17 85 -6 6 -12 16 -12 24 0 19 -21 25 -31 10z m38 -80 c-2 -16 -8 -29 -12 -29
-18 0 -29 29 -23 63 5 36 6 36 22 15 11 -12 16 -32 13 -49z"/>
<path d="M1047 1046 c-8 -8 -13 -25 -10 -38 2 -13 -6 -61 -17 -108 -35 -137
-34 -130 -16 -130 9 0 16 5 16 10 0 6 5 10 11 10 6 0 8 -8 5 -18 -4 -10 -8
-53 -11 -95 -3 -42 -10 -88 -15 -102 -14 -37 -12 -65 4 -65 14 0 37 59 51 127
7 34 33 51 47 31 19 -29 38 -68 38 -79 0 -7 8 -22 19 -33 10 -12 28 -46 41
-77 19 -47 27 -56 47 -56 18 -1 23 4 20 16 -3 9 -13 45 -22 81 -24 88 -52 150
-69 150 -16 0 -78 89 -73 104 2 6 19 19 39 28 22 10 38 27 42 42 3 14 20 34
36 46 30 21 66 71 39 55 -7 -5 -10 -4 -5 3 4 6 13 9 21 5 9 -3 15 1 15 11 0
25 -14 20 -72 -27 -73 -58 -135 -91 -141 -75 -2 7 -1 23 4 35 4 12 4 34 0 50
-4 15 -6 47 -3 71 4 45 -12 57 -41 28z m29 -95 c-2 -55 0 -105 4 -111 6 -9 18
-5 46 14 21 14 44 26 49 26 6 0 24 14 40 30 30 32 48 39 39 16 -3 -7 -16 -18
-30 -25 -14 -6 -30 -25 -36 -41 -6 -20 -24 -38 -49 -51 -24 -12 -39 -27 -39
-38 0 -22 66 -111 83 -111 13 0 40 -61 56 -131 6 -26 13 -54 17 -63 4 -10 1
-16 -7 -16 -8 1 -26 26 -41 58 -15 31 -31 64 -36 72 -5 8 -19 37 -32 63 -21
43 -26 48 -49 42 -30 -8 -41 -21 -41 -51 0 -30 -33 -121 -38 -106 -2 7 1 25 7
41 7 15 13 50 15 77 2 27 7 70 11 96 9 59 0 76 -28 51 -20 -17 -20 -17 -13 2
20 53 46 164 46 202 0 23 5 43 13 46 6 3 13 6 14 6 1 1 1 -44 -1 -98z"/>
<path d="M3022 1003 c-10 -21 -27 -76 -37 -121 -16 -70 -23 -85 -43 -93 -32
-12 -38 -11 -24 3 16 16 15 44 -2 76 -8 15 -17 34 -19 43 -9 27 -72 23 -95 -6
-21 -27 -32 -23 -32 11 0 31 -18 40 -24 12 -10 -48 -16 -165 -8 -172 4 -4 8
-46 9 -93 1 -47 5 -88 8 -91 13 -13 26 20 34 89 5 41 9 64 10 52 0 -13 17 -45
36 -72 19 -26 35 -55 35 -62 0 -34 22 -89 36 -89 11 0 13 11 8 58 -3 31 -13
70 -20 86 -8 16 -14 37 -14 46 0 9 -9 25 -20 35 -11 10 -20 21 -20 25 0 14 52
42 59 32 3 -5 23 -15 44 -23 30 -11 36 -17 31 -33 -10 -29 -12 -256 -3 -256 4
0 11 6 16 13 10 16 31 168 32 236 1 30 3 33 24 26 12 -3 32 -8 44 -10 12 -2
26 -6 32 -9 11 -7 51 14 51 26 0 12 -60 37 -105 44 -25 3 -45 7 -45 8 0 1 9
34 20 75 16 56 18 76 9 87 -9 11 -8 20 5 39 20 30 20 45 1 45 -8 0 -23 -17
-33 -37z m23 -3 c-9 -17 -13 -40 -10 -53 4 -13 -1 -51 -9 -84 -21 -79 -20 -83
9 -83 14 0 25 -5 25 -11 0 -6 9 -9 20 -6 23 6 77 -18 62 -27 -5 -3 -35 -1 -67
5 -31 6 -59 9 -61 7 -2 -2 -5 -31 -8 -63 -9 -96 -22 -194 -26 -199 -7 -6 -2
188 5 228 6 30 4 34 -19 40 -32 8 -33 18 -4 31 18 8 25 26 38 95 14 76 42 150
56 150 2 0 -2 -13 -11 -30z m-167 -90 c6 0 12 -8 12 -19 0 -10 7 -24 15 -31
25 -20 13 -51 -25 -73 -64 -34 -68 -44 -37 -73 15 -14 27 -36 27 -49 0 -13 5
-27 10 -30 6 -3 9 -23 9 -43 -1 -28 -3 -31 -6 -12 -3 13 -18 41 -34 61 -16 21
-32 51 -35 68 -9 43 -34 41 -34 -3 0 -18 -3 -55 -7 -82 l-8 -49 -6 65 c-3 36
-1 73 4 83 6 13 4 24 -6 35 -12 13 -14 30 -8 77 5 41 10 55 15 43 11 -25 19
-22 40 13 14 24 23 29 40 25 11 -3 27 -6 34 -6z m32 -405 c0 -5 -5 -3 -10 5
-5 8 -10 20 -10 25 0 6 5 3 10 -5 5 -8 10 -19 10 -25z"/>
<path d="M2812 857 c-27 -28 -28 -49 -4 -71 18 -15 20 -15 35 2 10 10 17 28
17 40 0 11 5 24 11 28 8 4 7 9 -2 15 -22 14 -34 11 -57 -14z m42 -9 c-5 -7 -9
-21 -9 -30 -2 -27 -14 -33 -31 -16 -13 13 -14 19 -2 37 7 11 21 21 31 21 12 0
16 -4 11 -12z"/>
<path d="M658 908 c-20 -16 -33 -74 -19 -82 6 -4 6 -17 -1 -36 -7 -20 -7 -35
0 -43 5 -6 13 -56 17 -109 11 -148 42 -121 48 42 1 25 6 51 11 58 5 8 2 20 -7
30 -10 11 -14 37 -14 74 1 64 -10 85 -35 66z m23 -30 c1 -13 1 -40 -1 -61 -1
-24 4 -45 15 -57 11 -12 13 -20 5 -25 -6 -4 -10 -25 -9 -48 0 -23 -3 -64 -8
-92 l-10 -50 -7 90 c-4 50 -11 99 -15 110 -5 11 -5 29 0 40 4 11 5 35 2 52 -6
37 1 63 17 63 5 0 11 -10 11 -22z"/>
<path d="M1776 898 c-3 -7 -13 -42 -22 -78 -12 -47 -25 -72 -46 -88 -15 -13
-28 -28 -28 -33 0 -5 15 2 34 17 25 21 37 40 47 82 17 71 29 43 21 -50 -3 -41
0 -85 8 -113 15 -52 6 -74 -11 -27 -13 36 -17 39 -34 16 -8 -12 -20 -15 -37
-11 -22 6 -26 14 -31 59 -3 29 -2 73 3 98 14 76 -7 83 -34 12 -19 -48 -20 -48
-38 -30 -10 10 -23 30 -28 44 -6 14 -14 23 -19 20 -10 -7 -21 -132 -14 -168 8
-44 31 -34 35 15 l3 42 31 -47 c23 -36 34 -44 42 -36 9 9 12 9 12 1 0 -6 13
-16 29 -21 22 -8 34 -7 49 4 19 13 21 12 24 -8 5 -36 34 -29 30 7 -4 34 -6
160 -4 190 1 11 1 31 1 45 0 14 2 34 3 44 3 22 -20 34 -26 14z m11 -30 c-3 -8
-6 -5 -6 6 -1 11 2 17 5 13 3 -3 4 -12 1 -19z m-122 -120 c-7 -35 -15 -74 -17
-87 -3 -22 -6 -20 -32 22 -42 67 -49 63 -47 -23 l0 -35 -9 30 c-5 17 -7 39 -3
50 3 11 6 38 5 60 -1 38 -1 39 9 13 6 -16 17 -28 25 -28 8 0 14 -6 14 -14 0
-27 20 -28 30 -2 6 14 14 37 20 51 16 42 18 28 5 -37z"/>
<path d="M3194 899 c-11 -18 -7 -216 5 -238 6 -11 11 -30 11 -43 0 -13 5 -29
12 -36 9 -9 9 -21 0 -50 -7 -22 -12 -49 -12 -60 0 -15 -10 -24 -35 -32 -19 -6
-35 -17 -35 -24 0 -7 -13 -25 -29 -40 -16 -15 -27 -35 -25 -44 5 -20 -92 -125
-154 -167 -48 -32 -68 -60 -52 -70 6 -4 29 9 50 29 24 21 50 36 65 36 42 0
124 85 175 181 9 16 33 41 55 56 22 15 48 37 58 50 10 13 33 31 50 39 17 9 45
30 62 48 17 17 59 51 93 75 65 45 85 79 36 61 -14 -6 -40 -21 -57 -34 -18 -13
-52 -32 -77 -42 -25 -9 -53 -24 -64 -33 -17 -15 -18 -15 -12 5 4 12 0 34 -9
50 -8 16 -15 46 -15 68 0 21 -8 53 -19 70 -10 17 -26 57 -35 88 -17 59 -30 76
-42 57z m65 -152 c6 -6 11 -28 11 -49 0 -22 9 -57 20 -80 14 -29 17 -45 10
-59 -15 -27 7 -35 33 -12 12 11 38 26 57 33 19 7 53 25 75 40 63 41 69 44 62
33 -3 -5 -37 -31 -75 -56 -39 -26 -72 -53 -75 -61 -3 -8 -24 -24 -46 -35 -21
-11 -48 -32 -60 -46 -11 -15 -38 -39 -60 -55 -22 -16 -45 -40 -53 -53 -50 -91
-132 -177 -169 -177 -17 0 -8 14 47 71 53 54 68 77 66 95 -2 18 5 29 28 42 16
9 30 23 30 30 0 7 14 18 30 23 21 8 30 18 30 32 0 12 7 43 14 68 11 37 12 49
2 60 -28 32 -47 181 -31 249 l9 35 17 -59 c10 -32 23 -64 28 -69z m-299 -581
c0 -2 -17 -16 -37 -31 l-38 -27 33 31 c30 29 42 37 42 27z"/>
<path d="M838 878 c-13 -14 -33 -30 -44 -36 -13 -7 -23 -25 -27 -46 -3 -19
-14 -52 -23 -72 -13 -26 -15 -39 -7 -41 8 -3 9 -12 3 -29 -8 -21 -6 -25 15
-30 14 -3 25 -12 25 -18 0 -17 24 -66 32 -66 4 0 14 14 23 30 9 17 23 30 35
30 10 0 22 5 25 10 3 6 17 10 29 10 13 0 29 7 36 15 16 19 4 38 -17 26 -9 -5
-27 -4 -44 3 -21 7 -37 7 -59 -1 -37 -14 -45 -3 -27 34 11 21 12 32 3 46 -9
15 -5 23 24 47 19 16 35 34 35 42 0 7 9 14 20 16 51 7 65 13 65 27 0 10 -10
15 -27 15 -16 0 -38 3 -50 6 -16 4 -29 -1 -45 -18z m90 2 c21 0 24 -2 12 -10
-8 -5 -27 -10 -43 -10 -19 0 -30 -7 -36 -22 -5 -13 -21 -33 -36 -46 -19 -17
-25 -30 -21 -45 3 -12 0 -37 -6 -54 -14 -39 -1 -61 29 -48 29 13 66 15 80 3 7
-5 20 -8 28 -4 8 3 15 1 15 -4 0 -6 -13 -10 -29 -10 -17 0 -33 -4 -36 -10 -3
-5 -15 -10 -26 -10 -11 0 -24 -11 -31 -25 -10 -23 -12 -23 -24 -7 -7 9 -14 25
-14 35 0 11 -8 21 -18 24 -15 3 -18 13 -16 46 5 67 29 138 50 150 10 6 29 21
42 35 13 14 29 21 38 18 9 -3 28 -6 42 -6z"/>
<path d="M2574 858 c-55 -58 -65 -89 -56 -168 7 -62 8 -65 40 -74 17 -5 32
-13 32 -17 0 -5 14 -9 32 -9 23 0 40 10 70 40 42 45 45 59 22 95 -12 19 -14
31 -7 52 12 34 -4 89 -32 109 -32 24 -59 16 -101 -28z m101 16 c17 -12 20 -27
20 -83 0 -43 5 -74 14 -85 12 -14 10 -21 -10 -51 -31 -46 -75 -59 -123 -37
-30 14 -35 22 -36 50 0 18 -5 42 -11 53 -14 27 8 81 53 131 35 40 61 46 93 22z"/>
<path d="M2592 828 c-7 -7 -12 -22 -12 -34 0 -13 -4 -26 -10 -29 -20 -12 -10
-57 20 -87 43 -43 60 -32 60 37 0 39 -4 57 -15 61 -10 4 -12 15 -8 35 6 31
-12 40 -35 17z m22 -23 c-4 -8 0 -23 7 -32 17 -20 21 -103 5 -103 -6 0 -22 12
-35 26 -23 23 -23 27 -11 67 17 53 19 57 30 57 5 0 7 -7 4 -15z"/>
<path d="M1460 845 c-5 -13 -18 -33 -30 -45 -14 -14 -19 -32 -18 -59 1 -22 -4
-53 -11 -69 -14 -35 -11 -84 6 -89 6 -3 18 19 27 51 9 31 21 56 26 56 6 0 22
-26 37 -57 l27 -58 4 45 c3 38 -4 87 -34 228 -6 29 -22 28 -34 -3z m35 -70 c9
-39 19 -92 21 -120 l4 -50 -18 45 c-22 57 -49 61 -73 10 -10 -19 -15 -38 -12
-42 2 -5 -1 -8 -6 -8 -15 0 -14 17 4 68 8 23 12 54 9 67 -4 18 1 30 20 48 14
13 26 32 26 42 0 32 8 11 25 -60z"/>
<path d="M1450 776 c-15 -41 -12 -53 13 -52 18 1 21 6 19 31 -5 43 -19 53 -32
21z m16 -33 c-11 -11 -17 4 -9 23 7 18 8 18 11 1 2 -10 1 -21 -2 -24z"/>
<path d="M1716 691 c-20 -22 -15 -51 7 -51 20 0 39 26 35 46 -5 25 -22 27 -42
5z m34 -10 c0 -13 -29 -35 -37 -28 -7 8 15 37 28 37 5 0 9 -4 9 -9z"/>
</g>
</svg>
